<?xml version="1.0" encoding="utf-8"?>
<!-- Generator: Adobe Illustrator 16.2.0, SVG Export Plug-In . SVG Version: 6.00 Build 0)  -->
<!DOCTYPE svg PUBLIC "-//W3C//DTD SVG 1.1//EN" "http://www.w3.org/Graphics/SVG/1.1/DTD/svg11.dtd">
<svg version="1.1" id="Layer_1" xmlns="http://www.w3.org/2000/svg" xmlns:xlink="http://www.w3.org/1999/xlink" x="0px" y="0px"
	 width="96px" height="96px" viewBox="0 0 96 96" enable-background="new 0 0 96 96" xml:space="preserve">
<path fill="#121212" d="M84.054,42.053c0,1.562-0.608,3.102-1.758,4.251L52.251,76.349c-1.134,1.127-2.66,1.757-4.251,1.757
	c-1.593,0-3.125-0.63-4.251-1.757L13.704,46.304c-1.149-1.15-1.757-2.689-1.757-4.251c0-0.774,0.149-1.556,0.458-2.298
	c0.932-2.246,3.117-3.71,5.551-3.71h15.022V5.999c0-3.319,2.689-6.009,6.009-6.009h18.026c3.321,0,6.01,2.689,6.01,6.009v30.045
	h15.021c2.427,0,4.62,1.465,5.552,3.71C83.902,40.497,84.054,41.279,84.054,42.053 M84.054,84.115H11.947V60.08H-0.071v24.035
	c0,6.64,5.378,12.018,12.018,12.018h72.107c6.64,0,12.018-5.378,12.018-12.018V60.08H84.054V84.115z"/>
</svg>
