<?xml version="1.0" encoding="utf-8"?>
<!-- Generator: Adobe Illustrator 16.2.0, SVG Export Plug-In . SVG Version: 6.00 Build 0)  -->
<!DOCTYPE svg PUBLIC "-//W3C//DTD SVG 1.1//EN" "http://www.w3.org/Graphics/SVG/1.1/DTD/svg11.dtd">
<svg version="1.1" id="Layer_1" xmlns="http://www.w3.org/2000/svg" xmlns:xlink="http://www.w3.org/1999/xlink" x="0px" y="0px"
	 width="96px" height="96px" viewBox="0 0 96 96" enable-background="new 0 0 96 96" xml:space="preserve">
<path d="M67.232,30.849c0-9.616-5.609-25.644-5.609-25.644c-0.263-0.817-0.801-1.603-1.603-1.603s-1.416,0.786-1.603,1.603
	l-1.604,24.041c-0.125,0.986-0.801,1.603-2.403,1.603s-2.279-0.577-2.404-1.603c-0.114-1.595-2.403-25.644-2.403-25.644
	C49.485,2.77,48.801,2,48,2s-1.486,0.77-1.604,1.603c0,0-2.289,24.049-2.404,25.644c-0.125,1.026-0.801,1.603-2.403,1.603
	s-2.278-0.617-2.404-1.603L37.583,5.206c-0.188-0.817-0.802-1.603-1.604-1.603c-0.801,0-1.34,0.786-1.603,1.603
	c0,0-5.609,16.027-5.609,25.644c0,5.931,7.074,13.254,12.821,16.027l-3.205,41.67c0,3.543,2.87,6.411,6.411,6.411h6.41
	c3.541,0,6.411-2.868,6.411-6.411l-3.205-41.67C60.158,44.104,67.232,36.78,67.232,30.849z"/>
</svg>
